<svg width="24" height="24" viewBox="0 0 24 24" fill="none" xmlns="http://www.w3.org/2000/svg">
    <path
        d="M12.0225 11.5004H16.0299C16.3876 11.5004 16.7184 11.3097 16.8974 11.0003C17.0764 10.6909 17.0764 10.3098 16.8974 10.0004C16.7184 9.69102 16.3876 9.50047 16.0299 9.50047H12.0225C11.6646 9.50047 11.3337 9.69102 11.1547 10.0004C10.9758 10.3098 10.9758 10.6909 11.1547 11.0003C11.3337 11.3096 11.6645 11.5004 12.0225 11.5004Z"
        fill="currentColor" />
    <path
        d="M1.00196 2.50037H1.52295C1.74517 2.49095 1.9644 2.5557 2.14586 2.68422C2.32707 2.81273 2.46054 2.99783 2.52492 3.21046L4.52859 9.77031L5.91114 15.1103L4.64892 16.1101H4.64867C3.9671 16.6255 3.53783 17.4062 3.46796 18.257C3.39836 19.1078 3.69515 19.9479 4.28374 20.5669C4.87232 21.1859 5.6976 21.5253 6.55212 21.5H8.01492C8.01492 22.2145 8.39671 22.8748 9.01662 23.232C9.63654 23.5893 10.4004 23.5893 11.0203 23.232C11.6402 22.8748 12.0223 22.2145 12.0223 21.5H16.0297C16.0297 22.2145 16.4115 22.8748 17.0314 23.232C17.6513 23.5893 18.4151 23.5893 19.0351 23.232C19.655 22.8748 20.0368 22.2145 20.0368 21.5H21.0387C21.3967 21.5 21.7272 21.3094 21.9062 21C22.0852 20.6907 22.0852 20.3096 21.9062 20.0002C21.7273 19.6908 21.3967 19.5 21.0387 19.5H6.55206C6.2754 19.5008 6.01068 19.3869 5.82105 19.1859C5.63114 18.9847 5.53321 18.7143 5.55036 18.4386C5.56726 18.1627 5.69776 17.9064 5.91103 17.73L7.01315 16.82L7.0129 16.8202C7.60896 17.2638 8.33328 17.5022 9.07677 17.5H18.9348C19.6536 17.5189 20.3583 17.2968 20.9357 16.8688C21.5131 16.4411 21.9305 15.8325 22.1206 15.1403L23.9339 8.14025V8.14001C24.1196 7.29817 23.9093 6.41766 23.3629 5.74999C22.7264 4.95357 21.7587 4.49258 20.7381 4.50001H7.27337C6.52148 4.49431 5.78894 4.73671 5.18965 5.18998L4.39818 2.62009C4.20927 2.00602 3.82822 1.46862 3.31044 1.08702C2.79293 0.705434 2.16632 0.499753 1.52274 0.5H1.00174C0.643809 0.5 0.313237 0.690794 0.134238 1.00018C-0.0447618 1.30957 -0.0447299 1.69066 0.134238 2.00004C0.313205 2.30943 0.643797 2.49997 1.00174 2.49997L1.00196 2.50037ZM6.21139 6.97026L6.21164 6.97051C6.47661 6.66236 6.86686 6.48968 7.27354 6.50035H20.7383C21.1447 6.49117 21.5342 6.66335 21.8002 6.97051C21.9593 7.15485 22.0256 7.40122 21.9806 7.6404L20.1673 14.6404H20.1671C20.0856 14.8994 19.9205 15.1242 19.6978 15.2798C19.4748 15.4353 19.2066 15.513 18.935 15.5006H9.07696C8.80354 15.5152 8.5331 15.4388 8.30815 15.283C8.0832 15.1272 7.91666 14.9012 7.83463 14.6404L6.03128 7.64039C5.98927 7.40146 6.05514 7.15609 6.21173 6.97049L6.21139 6.97026Z"
        fill="currentColor" />
</svg>