<svg width="25" height="14" viewBox="0 0 25 14" fill="none" xmlns="http://www.w3.org/2000/svg">
    <path
        d="M6.27762 12.0668C6.27762 12.8032 5.68085 13.4002 4.94446 13.4002C4.20808 13.4002 3.61108 12.8032 3.61108 12.0668C3.61108 11.3304 4.20808 10.7336 4.94446 10.7336C5.68085 10.7336 6.27762 11.3304 6.27762 12.0668Z"
        fill="currentColor" />
    <path d="M7.83313 5.31152H11.1664V8.64478H7.83313V5.31152Z" fill="currentColor" />
    <path
        d="M3.61108 1.08899V4.42224H6.94434V1.08899H3.61108ZM4.94447 2.55561H4.50007C4.27777 2.55561 4.05568 2.33331 4.05568 2.11122C4.05568 1.88892 4.27799 1.66683 4.50007 1.66683H4.94447C5.16677 1.66683 5.38886 1.88914 5.38886 2.11122C5.38886 2.33353 5.16655 2.55561 4.94447 2.55561Z"
        fill="currentColor" />
    <path
        d="M3.16676 9.53349H0.5V11.6225H2.7667C2.989 10.6003 3.8778 9.84469 4.94453 9.84469C6.01126 9.84469 6.90008 10.6003 7.12236 11.6225H14.5444V9.53349H3.16676Z"
        fill="currentColor" />
    <path
        d="M7.83313 1.08899V4.42224H11.1664V1.08899H7.83313ZM9.16629 2.55561H8.7219C8.49959 2.55561 8.2775 2.33331 8.2775 2.11122C8.2775 1.88892 8.49981 1.66683 8.7219 1.66683H9.16629C9.38859 1.66683 9.61068 1.88914 9.61068 2.11122C9.6109 2.33353 9.38859 2.55561 9.16629 2.55561Z"
        fill="currentColor" />
    <path d="M3.61108 5.31152H6.94434V8.64478H3.61108V5.31152Z" fill="currentColor" />
    <path
        d="M24.4556 5.97773L22.6335 0.600059L15.4333 0.599838V11.6222H17.789C18.0113 10.6 18.9001 9.84446 19.9668 9.84446C21.0335 9.84446 21.9224 10.6 22.1446 11.6222H24.5L24.4556 5.97773ZM23.5223 6.33324C23.4777 6.46645 23.3 6.55533 23.1665 6.55533H16.4999C16.2776 6.55533 16.0555 6.33302 16.0555 6.11094V2.11097C16.0555 1.88866 16.2778 1.66658 16.4999 1.66658H21.3889C21.5666 1.66658 21.7444 1.75545 21.7889 1.93321L23.5667 5.93318C23.611 6.06661 23.611 6.24437 23.5222 6.33324H23.5223Z"
        fill="currentColor" />
    <path
        d="M21.2996 12.0668C21.2996 12.8032 20.7028 13.4002 19.9664 13.4002C19.23 13.4002 18.6331 12.8032 18.6331 12.0668C18.6331 11.3304 19.23 10.7336 19.9664 10.7336C20.7028 10.7336 21.2996 11.3304 21.2996 12.0668Z"
        fill="currentColor" />
    <path d="M16.9443 2.55579V5.66693H22.4997L21.122 2.55579H16.9443Z" fill="currentColor" />
</svg>